<svg xmlns="http://www.w3.org/2000/svg" xmlns:cc="http://web.resource.org/cc/" xmlns:svg="http://www.w3.org/2000/svg" id="svg5692" width="32" height="32" version="1.1"><metadata id="metadata27"/><title id="title3096">PgVersion commit</title><g id="layer2" display="inline"><path d="m 6.5,17.5 c 6.811881,2.891089 15.514851,2.376238 19,0 l 0,5 -10,2 -9,-2 0,-5 z" style="marker:none" id="path14788" fill="#ce5c00" fill-opacity="1" fill-rule="nonzero" stroke="none" stroke-width="1" color="#000" display="inline" enable-background="accumulate" overflow="visible" visibility="visible"/><path d="m 6.5,7.5 c 6.811881,2.891089 15.514851,2.376238 19,0 l 0,5 -10,2 -9,-2 0,-5 z" style="marker:none" id="path3121" fill="#fcaf3e" fill-opacity="1" fill-rule="nonzero" stroke="none" stroke-width="1" color="#000" display="inline" enable-background="accumulate" overflow="visible" visibility="visible"/><path id="path14757" fill="#fcaf3e" fill-opacity="1" fill-rule="nonzero" stroke="#888a85" stroke-dasharray="none" stroke-dashoffset="0" stroke-linecap="square" stroke-linejoin="round" stroke-miterlimit="4" stroke-opacity="1" stroke-width="1" d="m 25.5,7.5 a 9.5,2 0 1 1 -19,0 9.5,2 0 1 1 19,0 z" color="#000" display="inline" enable-background="accumulate" overflow="visible" visibility="visible" style="marker:none"/><path d="m 6.5,12.5 c 6.811881,2.891089 15.514851,2.376238 19,0 l 0,5 -10,1 -9,-1 0,-5 z" style="marker:none" id="path3119" fill="#f57900" fill-opacity="1" fill-rule="nonzero" stroke="none" stroke-width="1" color="#000" display="inline" enable-background="accumulate" overflow="visible" visibility="visible"/><path id="path14767" fill="#729fcf" fill-opacity=".784" fill-rule="nonzero" stroke="#888a85" stroke-dasharray="none" stroke-dashoffset="0" stroke-linecap="round" stroke-linejoin="round" stroke-miterlimit="4" stroke-opacity="1" stroke-width="1" d="m 6.5,7.5 0,15" color="#000" display="inline" enable-background="accumulate" overflow="visible" visibility="visible" style="marker:none"/><path id="path14786" fill="#729fcf" fill-opacity=".784" fill-rule="nonzero" stroke="#888a85" stroke-dasharray="none" stroke-dashoffset="0" stroke-linecap="round" stroke-linejoin="round" stroke-miterlimit="4" stroke-opacity="1" stroke-width="1" d="m 25.5,7.5 0,15" color="#000" display="inline" enable-background="accumulate" overflow="visible" visibility="visible" style="marker:none"/><path id="path14836" fill="#fcaf3e" stroke="#888a85" stroke-linecap="round" stroke-linejoin="round" stroke-opacity="1" stroke-width="1" d="m 6.5,12.5 c 6,3 13,3 19,0"/><path id="path14838" fill="#f57900" stroke="#888a85" stroke-linecap="round" stroke-linejoin="round" stroke-opacity="1" stroke-width="1" d="m 6.5,17.5 c 6,3 13,3 19,0"/><path id="path14840" fill="#ce5c00" stroke="#888a85" stroke-linecap="round" stroke-linejoin="round" stroke-opacity="1" stroke-width="1" d="m 6.5,22.5 c 6,3 13,3 19,0"/><path id="path13973-2" fill="#fcffff" fill-rule="evenodd" stroke="none" d="m 6.0695622,7.165215 c 0,0 -0.047827,13.573917 -0.047827,15.573917 3.5251728,2.182423 5.6326868,2.009567 5.6326868,2.009567 L 11.615088,9.1020812 C 10.475651,8.1212712 11.619842,6.1996533 17.452174,5.117389 15.409649,4.992041 7.0102811,4.640104 6.0695622,7.165215 z" display="inline" opacity=".2"/></g><g id="g1960" display="inline" transform="matrix(1.269231,0,0,1.269231,-8.574143,-8.513422)"><rect id="rect1966" width="12" height="12" x="19.5" y="19.5" fill="#fff3da" fill-opacity="1" fill-rule="nonzero" stroke="#204a87" stroke-dasharray="none" stroke-dashoffset="0" stroke-linecap="square" stroke-linejoin="round" stroke-miterlimit="4" stroke-opacity="1" stroke-width="1" color="#000" display="inline" opacity=".9" overflow="visible" rx=".857" ry=".857" visibility="visible" style="marker:none"/><path id="path1970" fill="#000" fill-opacity="1" stroke="#29282f" stroke-dasharray="none" stroke-linecap="round" stroke-linejoin="round" stroke-miterlimit="4" stroke-opacity="1" stroke-width=".923" d="M 22.024992,29.886463 L 22.012358,29.891401 L 28.795358,29.891401 L 28.775749,29.899097"/><path id="path6410" fill="#000" fill-opacity="1" stroke="#29282f" stroke-dasharray="none" stroke-linecap="round" stroke-linejoin="round" stroke-miterlimit="4" stroke-opacity="1" stroke-width=".923" d="M 22.024991,27.914194 L 22.012357,27.919132 L 28.795358,27.919132 L 28.775749,27.926828" display="inline"/><path id="path6412" fill="#000" fill-opacity="1" stroke="#29282f" stroke-dasharray="none" stroke-linecap="round" stroke-linejoin="round" stroke-miterlimit="4" stroke-opacity="1" stroke-width=".923" d="M 22.024992,23.969657 L 22.012358,23.974595 L 28.795358,23.974595 L 28.775749,23.982291" display="inline"/><path id="path6414" fill="#000" fill-opacity="1" stroke="#29282f" stroke-dasharray="none" stroke-linecap="round" stroke-linejoin="round" stroke-miterlimit="4" stroke-opacity="1" stroke-width=".923" d="M 22.024991,21.997388 L 22.012357,22.002326 L 28.795358,22.002326 L 28.775749,22.010022" display="inline"/><path id="path6416" fill="#000" fill-opacity="1" stroke="#29282f" stroke-dasharray="none" stroke-linecap="round" stroke-linejoin="round" stroke-miterlimit="4" stroke-opacity="1" stroke-width=".923" d="M 22.024992,25.941926 L 22.012358,25.946864 L 28.795358,25.946864 L 28.775749,25.95456" display="inline"/></g></svg>