<svg xmlns="http://www.w3.org/2000/svg" xmlns:svg="http://www.w3.org/2000/svg" id="svg5692" width="32" height="32" version="1.1"><metadata id="metadata28"/><title id="title3096">PgVersion revert</title><g id="layer2" display="inline"><path d="m 6.5,17.5 c 6.811881,2.891089 15.514851,2.376238 19,0 l 0,5 -10,2 -9,-2 0,-5 z" style="marker:none" id="path14788" fill="#ce5c00" fill-opacity="1" fill-rule="nonzero" stroke="none" stroke-width="1" color="#000" display="inline" enable-background="accumulate" overflow="visible" visibility="visible"/><path d="m 6.5,7.5 c 6.811881,2.891089 15.514851,2.376238 19,0 l 0,5 -10,2 -9,-2 0,-5 z" style="marker:none" id="path3121" fill="#fcaf3e" fill-opacity="1" fill-rule="nonzero" stroke="none" stroke-width="1" color="#000" display="inline" enable-background="accumulate" overflow="visible" visibility="visible"/><path id="path14757" fill="#fcaf3e" fill-opacity="1" fill-rule="nonzero" stroke="#888a85" stroke-dasharray="none" stroke-dashoffset="0" stroke-linecap="square" stroke-linejoin="round" stroke-miterlimit="4" stroke-opacity="1" stroke-width="1" d="m 25.5,7.5 a 9.5,2 0 1 1 -19,0 9.5,2 0 1 1 19,0 z" color="#000" display="inline" enable-background="accumulate" overflow="visible" visibility="visible" style="marker:none"/><path d="m 6.5,12.5 c 6.811881,2.891089 15.514851,2.376238 19,0 l 0,5 -10,1 -9,-1 0,-5 z" style="marker:none" id="path3119" fill="#f57900" fill-opacity="1" fill-rule="nonzero" stroke="none" stroke-width="1" color="#000" display="inline" enable-background="accumulate" overflow="visible" visibility="visible"/><path id="path14767" fill="#729fcf" fill-opacity=".784" fill-rule="nonzero" stroke="#888a85" stroke-dasharray="none" stroke-dashoffset="0" stroke-linecap="round" stroke-linejoin="round" stroke-miterlimit="4" stroke-opacity="1" stroke-width="1" d="m 6.5,7.5 0,15" color="#000" display="inline" enable-background="accumulate" overflow="visible" visibility="visible" style="marker:none"/><path id="path14786" fill="#729fcf" fill-opacity=".784" fill-rule="nonzero" stroke="#888a85" stroke-dasharray="none" stroke-dashoffset="0" stroke-linecap="round" stroke-linejoin="round" stroke-miterlimit="4" stroke-opacity="1" stroke-width="1" d="m 25.5,7.5 0,15" color="#000" display="inline" enable-background="accumulate" overflow="visible" visibility="visible" style="marker:none"/><path id="path14836" fill="#fcaf3e" stroke="#888a85" stroke-linecap="round" stroke-linejoin="round" stroke-opacity="1" stroke-width="1" d="m 6.5,12.5 c 6,3 13,3 19,0"/><path id="path14838" fill="#f57900" stroke="#888a85" stroke-linecap="round" stroke-linejoin="round" stroke-opacity="1" stroke-width="1" d="m 6.5,17.5 c 6,3 13,3 19,0"/><path id="path14840" fill="#ce5c00" stroke="#888a85" stroke-linecap="round" stroke-linejoin="round" stroke-opacity="1" stroke-width="1" d="m 6.5,22.5 c 6,3 13,3 19,0"/><path id="path13973-2" fill="#fcffff" fill-rule="evenodd" stroke="none" d="m 6.0695622,7.165215 c 0,0 -0.047827,13.573917 -0.047827,15.573917 3.5251728,2.182423 5.6326868,2.009567 5.6326868,2.009567 L 11.615088,9.1020812 C 10.475651,8.1212712 11.619842,6.1996533 17.452174,5.117389 15.409649,4.992041 7.0102811,4.640104 6.0695622,7.165215 z" display="inline" opacity=".2"/></g><g id="layer1" display="inline" transform="matrix(1.2019231,0,0,1.2019231,-6.4615385,-6.4615385)"><g id="g8141" display="inline"><rect id="rect10143-0-4" width="12" height="12" x="19.5" y="19.5" fill="#4e9a06" fill-opacity="1" fill-rule="nonzero" stroke="#4e9a06" stroke-dasharray="none" stroke-dashoffset="0" stroke-linecap="square" stroke-linejoin="round" stroke-miterlimit="4" stroke-opacity="1" stroke-width="1" color="#000" display="inline" enable-background="accumulate" opacity=".9" overflow="visible" rx=".857" ry=".857" visibility="visible" style="marker:none"/><path id="path10149-9-2" fill="#fcffff" fill-rule="evenodd" stroke="none" d="m 19.5,25.5 12,0 0,-4 c 0,-2 0,-2 -3,-2 -0.698149,0 -6.072237,0 -7,0 -2,0 -2,0 -2,2 0,1 0,2 0,4 z" display="inline" enable-background="new" opacity=".3"/><path id="path15031-3-49" fill="none" stroke="#eeeeec" stroke-dasharray="none" stroke-linecap="round" stroke-linejoin="miter" stroke-miterlimit="4" stroke-opacity="1" stroke-width="1.706" d="m 23.5,26.5 c -3,-8 12,-8 4,3" display="inline"/><g id="g8077" transform="matrix(0,-1,1,0,-1,48)"><path id="path15033-4-32" fill="#5c3566" stroke="#eeeeec" stroke-dasharray="none" stroke-linecap="round" stroke-linejoin="miter" stroke-miterlimit="4" stroke-opacity="1" stroke-width="1.706" d="m 20.5,24.5 3,-3" display="inline"/><path id="path15035-1-2" fill="#5c3566" stroke="#eeeeec" stroke-dasharray="none" stroke-linecap="round" stroke-linejoin="miter" stroke-miterlimit="4" stroke-opacity="1" stroke-width="1.706" d="m 20.5,24.5 3,3" display="inline"/></g></g></g></svg>