<svg xmlns="http://www.w3.org/2000/svg" xmlns:svg="http://www.w3.org/2000/svg" id="svg5692" width="24" height="24" display="inline" version="1.1"><title id="title2968">PgVersion icon - help</title><metadata id="metadata5697"/><g id="layer10" display="inline"><g id="g2958" transform="translate(12,4)"><path d="m -11.5,8.5 c 6.811881,2.891089 15.514851,2.376238 19,0 l 0,5 -10,2 -9,-2 0,-5 z" style="marker:none" id="path14788" fill="#ce5c00" fill-opacity="1" fill-rule="nonzero" stroke="none" stroke-width="1" color="#000" display="inline" enable-background="accumulate" overflow="visible" visibility="visible"/><path d="m -11.5,-1.5 c 6.811881,2.891089 15.514851,2.376238 19,0 l 0,5 -10,2 -9,-2 0,-5 z" style="marker:none" id="path3121" fill="#fcaf3e" fill-opacity="1" fill-rule="nonzero" stroke="none" stroke-width="1" color="#000" display="inline" enable-background="accumulate" overflow="visible" visibility="visible"/><path id="path14757" fill="#fcaf3e" fill-opacity="1" fill-rule="nonzero" stroke="#888a85" stroke-dasharray="none" stroke-dashoffset="0" stroke-linecap="square" stroke-linejoin="round" stroke-miterlimit="4" stroke-opacity="1" stroke-width="1" d="m 25.5,7.5 c 0,1.1045695 -4.253295,2 -9.5,2 -5.246705,0 -9.5,-0.8954305 -9.5,-2 0,-1.1045695 4.253295,-2 9.5,-2 5.246705,0 9.5,0.8954305 9.5,2 z" color="#000" display="inline" enable-background="accumulate" overflow="visible" transform="translate(-18,-9)" visibility="visible" style="marker:none"/><path id="path3119" fill="#f57900" fill-opacity="1" fill-rule="nonzero" stroke="none" stroke-width="1" d="m -11.5,3.5 c 6.811881,2.891089 15.514851,2.376238 19,0 l 0,5 -10,1 -9,-1 0,-5 z" color="#000" display="inline" enable-background="accumulate" overflow="visible" visibility="visible" style="marker:none"/><path id="path14767" fill="#729fcf" fill-opacity=".784" fill-rule="nonzero" stroke="#888a85" stroke-dasharray="none" stroke-dashoffset="0" stroke-linecap="round" stroke-linejoin="round" stroke-miterlimit="4" stroke-opacity="1" stroke-width="1" d="m -11.5,-1.5 0,15" color="#000" display="inline" enable-background="accumulate" overflow="visible" visibility="visible" style="marker:none"/><path id="path14786" fill="#729fcf" fill-opacity=".784" fill-rule="nonzero" stroke="#888a85" stroke-dasharray="none" stroke-dashoffset="0" stroke-linecap="round" stroke-linejoin="round" stroke-miterlimit="4" stroke-opacity="1" stroke-width="1" d="m 7.5,-1.5 0,15" color="#000" display="inline" enable-background="accumulate" overflow="visible" visibility="visible" style="marker:none"/><path id="path14836" fill="#fcaf3e" stroke="#888a85" stroke-linecap="round" stroke-linejoin="round" stroke-opacity="1" stroke-width="1" d="m -11.5,3.5 c 6,3 13,3 19,0" display="inline"/><path id="path14838" fill="#f57900" stroke="#888a85" stroke-linecap="round" stroke-linejoin="round" stroke-opacity="1" stroke-width="1" d="m -11.5,8.5 c 6,3 13,3 19,0" display="inline"/><path id="path14840" fill="#ce5c00" stroke="#888a85" stroke-linecap="round" stroke-linejoin="round" stroke-opacity="1" stroke-width="1" d="m -11.5,13.5 c 6,3 13,3 19,0" display="inline"/><path id="path13973-2" fill="#fcffff" fill-rule="evenodd" stroke="none" d="m -11.930438,-1.834785 c 0,0 -0.04783,13.573917 -0.04783,15.573917 3.525173,2.182423 5.632687,2.009567 5.632687,2.009567 L -6.384912,0.1020812 c -1.139437,-0.98081 0.00475,-2.9024279 5.837086,-3.9846922 -2.042525,-0.125348 -10.441893,-0.477285 -11.382612,2.047826 z" display="inline" opacity=".2"/></g></g><g id="layer8" display="inline"><g id="g5786" transform="translate(-18,2)"><path id="path3076" fill="#e6e6e6" fill-opacity="1" fill-rule="nonzero" stroke="none" stroke-width="1.5" d="M 33.25,5.25 C 28.696,5.25 25,8.946 25,13.5 c 0,4.554 3.696,8.25 8.25,8.25 4.554,0 8.25,-3.696 8.25,-8.25 0,-4.554 -3.696,-8.25 -8.25,-8.25 z m 0,3 c 2.897999,0 5.25,2.352 5.25,5.25 -10e-7,2.897999 -2.352,5.25 -5.25,5.25 -2.898,-1e-6 -5.25,-2.352 -5.25,-5.25 0,-2.898 2.352,-5.25 5.25,-5.25 z" display="inline" enable-background="accumulate" opacity=".9" overflow="visible" visibility="visible" style="marker:none"/><path id="path3074" fill="#a00000" fill-opacity="1" fill-rule="nonzero" stroke="none" stroke-width="1.5" d="m 31,5.25 0.75,3 3,0 0.75,-3 -4.5,0 z" display="inline" enable-background="accumulate" opacity=".9" overflow="visible" visibility="visible" style="marker:none"/><path id="path3879" fill="#a00000" fill-opacity="1" fill-rule="nonzero" stroke="none" stroke-width="1.5" d="m 31,21.375 0.75,-3 3,0 0.75,3 -4.5,0 z" display="inline" enable-background="accumulate" opacity=".9" overflow="visible" visibility="visible" style="marker:none"/><path id="path3883" fill="#a00000" fill-opacity="1" fill-rule="nonzero" stroke="none" stroke-width="1.5" d="m 25.097057,15.737224 3.000002,-0.750002 -1e-6,-3 -3.000002,-0.75 1e-6,4.500002 z" display="inline" enable-background="accumulate" opacity=".9" overflow="visible" visibility="visible" style="marker:none"/><path id="path3881" fill="#a00000" fill-opacity="1" fill-rule="nonzero" stroke="none" stroke-width="1.5" d="m 41.222058,15.737224 -3.000002,-0.750002 10e-7,-3 3.000002,-0.75 -1e-6,4.500002 z" display="inline" enable-background="accumulate" opacity=".9" overflow="visible" visibility="visible" style="marker:none"/><path id="path3081" fill="none" stroke="#969696" stroke-dasharray="none" stroke-dashoffset=".5" stroke-linecap="round" stroke-linejoin="round" stroke-miterlimit="4" stroke-opacity="1" stroke-width="1.333" d="M 23,12 A 11,11 0 1 1 1,12 11,11 0 1 1 23,12 z" display="inline" enable-background="accumulate" overflow="visible" transform="matrix(0.75,0,0,0.75,24.25,4.5)" visibility="visible" style="marker:none"/><path id="path3083" fill="#fff" fill-opacity=".784" stroke="#969696" stroke-dasharray="none" stroke-dashoffset=".807" stroke-linecap="round" stroke-linejoin="round" stroke-miterlimit="4" stroke-opacity="1" stroke-width="2.151" d="M 23,12 A 11,11 0 1 1 1,12 11,11 0 1 1 23,12 z" display="inline" enable-background="accumulate" overflow="visible" transform="matrix(0.46487603,0,0,0.46487603,27.671488,7.9214876)" visibility="visible" style="marker:none"/><path id="path3901" fill="none" stroke="#fcffff" stroke-dasharray="none" stroke-dashoffset=".5" stroke-linecap="round" stroke-linejoin="round" stroke-miterlimit="4" stroke-opacity=".588" stroke-width="2" d="m 27.25,10.5 c 2.25,-3 3.75,-3.75 6,-3.75" display="inline" enable-background="accumulate" overflow="visible" visibility="visible" style="marker:none"/></g></g></svg>